<mxfile host="app.diagrams.net" agent="Mozilla/5.0 (X11; Ubuntu; Linux x86_64; rv:136.0) Gecko/20100101 Firefox/136.0" version="26.0.16">
  <diagram name="Page-1" id="nu1Ta124G9FzhBhLbaBB">
    <mxGraphModel dx="3993" dy="1317" grid="1" gridSize="30" guides="1" tooltips="1" connect="1" arrows="1" fold="1" page="1" pageScale="1" pageWidth="850" pageHeight="1100" math="0" shadow="0">
      <root>
        <mxCell id="0" />
        <mxCell id="1" parent="0" />
        <mxCell id="K2BnNvE794O0oo77WChW-2" value="domain layer" style="whiteSpace=wrap;html=1;aspect=fixed;fontSize=25;" parent="1" vertex="1">
          <mxGeometry x="265" y="197.5" width="345" height="345" as="geometry" />
        </mxCell>
        <mxCell id="K2BnNvE794O0oo77WChW-3" value="Content" style="swimlane;childLayout=stackLayout;horizontal=1;startSize=50;horizontalStack=0;rounded=1;fontSize=25;fontStyle=0;strokeWidth=2;resizeParent=0;resizeLast=1;shadow=0;dashed=0;align=center;arcSize=4;whiteSpace=wrap;html=1;" parent="1" vertex="1">
          <mxGeometry x="710" y="250" width="275" height="470" as="geometry" />
        </mxCell>
        <mxCell id="K2BnNvE794O0oo77WChW-4" value="&lt;div&gt;+ name&lt;/div&gt;&lt;div&gt;+ username&lt;/div&gt;&lt;div&gt;+ text&lt;/div&gt;&lt;div&gt;+ url&lt;/div&gt;&lt;div&gt;+ creationTime&lt;/div&gt;&lt;div&gt;&lt;span style=&quot;color: rgb(0, 255, 0);&quot;&gt;&lt;br&gt;&lt;/span&gt;&lt;/div&gt;&lt;div&gt;&lt;div&gt;&lt;span style=&quot;color: rgb(0, 255, 0);&quot;&gt;+ id&lt;/span&gt;&lt;/div&gt;&lt;div&gt;&lt;span style=&quot;color: rgb(0, 255, 0);&quot;&gt;+ name&lt;/span&gt;&lt;/div&gt;&lt;div&gt;&lt;span style=&quot;color: rgb(0, 255, 0);&quot;&gt;+ username&lt;/span&gt;&lt;/div&gt;&lt;div&gt;&lt;span style=&quot;color: rgb(0, 255, 0);&quot;&gt;+ text&lt;/span&gt;&lt;/div&gt;&lt;div&gt;&lt;span style=&quot;color: rgb(0, 255, 0);&quot;&gt;+ url&lt;/span&gt;&lt;/div&gt;&lt;div&gt;&lt;span style=&quot;color: rgb(0, 255, 0);&quot;&gt;+ creationTime&lt;/span&gt;&lt;/div&gt;&lt;/div&gt;" style="align=left;strokeColor=none;fillColor=none;spacingLeft=4;spacingRight=4;fontSize=25;verticalAlign=top;resizable=0;rotatable=0;part=1;html=1;whiteSpace=wrap;" parent="K2BnNvE794O0oo77WChW-3" vertex="1">
          <mxGeometry y="50" width="275" height="420" as="geometry" />
        </mxCell>
        <mxCell id="K2BnNvE794O0oo77WChW-5" value="CreateContentCommand" style="swimlane;childLayout=stackLayout;horizontal=1;startSize=50;horizontalStack=0;rounded=1;fontSize=25;fontStyle=0;strokeWidth=2;resizeParent=0;resizeLast=1;shadow=0;dashed=0;align=center;arcSize=4;whiteSpace=wrap;html=1;" parent="1" vertex="1">
          <mxGeometry x="-65" y="250" width="300" height="240" as="geometry" />
        </mxCell>
        <mxCell id="K2BnNvE794O0oo77WChW-6" value="&lt;div&gt;+ username&lt;/div&gt;&lt;div&gt;+ text&lt;/div&gt;&lt;div&gt;&lt;br&gt;&lt;/div&gt;&lt;div&gt;&lt;span style=&quot;color: rgb(128, 255, 0);&quot;&gt;+ url&lt;/span&gt;&lt;/div&gt;&lt;div&gt;&lt;span style=&quot;color: rgb(128, 255, 0);&quot;&gt;+ creationTime&lt;/span&gt;&lt;/div&gt;" style="align=left;strokeColor=none;fillColor=none;spacingLeft=4;spacingRight=4;fontSize=25;verticalAlign=top;resizable=0;rotatable=0;part=1;html=1;whiteSpace=wrap;" parent="K2BnNvE794O0oo77WChW-5" vertex="1">
          <mxGeometry y="50" width="300" height="190" as="geometry" />
        </mxCell>
        <mxCell id="K2BnNvE794O0oo77WChW-8" value="" style="endArrow=none;dashed=1;html=1;rounded=0;" parent="1" edge="1">
          <mxGeometry width="50" height="50" relative="1" as="geometry">
            <mxPoint x="-155" y="535" as="sourcePoint" />
            <mxPoint x="-155" y="175" as="targetPoint" />
          </mxGeometry>
        </mxCell>
        <mxCell id="K2BnNvE794O0oo77WChW-10" value="&lt;font style=&quot;font-size: 40px;&quot;&gt;application&lt;/font&gt;" style="text;html=1;align=center;verticalAlign=middle;whiteSpace=wrap;rounded=0;rotation=270;" parent="1" vertex="1">
          <mxGeometry x="-365" y="320" width="250" height="70" as="geometry" />
        </mxCell>
        <mxCell id="K2BnNvE794O0oo77WChW-12" value="" style="endArrow=none;dashed=1;html=1;rounded=0;" parent="1" edge="1">
          <mxGeometry width="50" height="50" relative="1" as="geometry">
            <mxPoint x="675.5" y="535" as="sourcePoint" />
            <mxPoint x="675.5" y="175" as="targetPoint" />
          </mxGeometry>
        </mxCell>
        <mxCell id="K2BnNvE794O0oo77WChW-16" value="&lt;div&gt;&lt;font style=&quot;font-size: 40px;&quot;&gt;persistence&lt;/font&gt;&lt;/div&gt;" style="text;html=1;align=center;verticalAlign=middle;whiteSpace=wrap;rounded=0;rotation=270;" parent="1" vertex="1">
          <mxGeometry x="945" y="322.5" width="270" height="35" as="geometry" />
        </mxCell>
        <mxCell id="K2BnNvE794O0oo77WChW-29" value="&lt;font style=&quot;font-size: 50px;&quot;&gt;Create Content Behavior&lt;/font&gt;" style="text;html=1;align=center;verticalAlign=middle;resizable=0;points=[];autosize=1;strokeColor=none;fillColor=none;" parent="1" vertex="1">
          <mxGeometry x="140" y="60" width="570" height="90" as="geometry" />
        </mxCell>
        <mxCell id="R6u3nu17tzwOtLrUYLya-31" value="domain layer" style="whiteSpace=wrap;html=1;aspect=fixed;fontSize=25;" parent="1" vertex="1">
          <mxGeometry x="277.5" y="977.5" width="345" height="345" as="geometry" />
        </mxCell>
        <mxCell id="R6u3nu17tzwOtLrUYLya-32" value="Content" style="swimlane;childLayout=stackLayout;horizontal=1;startSize=50;horizontalStack=0;rounded=1;fontSize=25;fontStyle=0;strokeWidth=2;resizeParent=0;resizeLast=1;shadow=0;dashed=0;align=center;arcSize=4;whiteSpace=wrap;html=1;" parent="1" vertex="1">
          <mxGeometry x="701.5" y="1030" width="283.5" height="320" as="geometry" />
        </mxCell>
        <mxCell id="R6u3nu17tzwOtLrUYLya-33" value="&lt;div&gt;+ url&lt;/div&gt;&lt;div&gt;&lt;span style=&quot;color: rgb(0, 255, 0);&quot;&gt;&lt;br&gt;&lt;/span&gt;&lt;/div&gt;&lt;div&gt;&lt;span style=&quot;color: rgb(0, 255, 0);&quot;&gt;+ id&lt;/span&gt;&lt;/div&gt;&lt;div&gt;&lt;span style=&quot;color: rgb(0, 255, 0);&quot;&gt;+ name&lt;/span&gt;&lt;/div&gt;&lt;div&gt;&lt;span style=&quot;color: rgb(0, 255, 0);&quot;&gt;+ username&lt;/span&gt;&lt;/div&gt;&lt;div&gt;&lt;span style=&quot;color: rgb(0, 255, 0);&quot;&gt;+ text&lt;/span&gt;&lt;/div&gt;&lt;div&gt;&lt;span style=&quot;color: rgb(0, 255, 0);&quot;&gt;+ url&lt;/span&gt;&lt;/div&gt;&lt;div&gt;&lt;span style=&quot;color: rgb(0, 255, 0);&quot;&gt;+ creationTime&lt;/span&gt;&lt;/div&gt;" style="align=left;strokeColor=none;fillColor=none;spacingLeft=4;spacingRight=4;fontSize=25;verticalAlign=top;resizable=0;rotatable=0;part=1;html=1;whiteSpace=wrap;" parent="R6u3nu17tzwOtLrUYLya-32" vertex="1">
          <mxGeometry y="50" width="283.5" height="270" as="geometry" />
        </mxCell>
        <mxCell id="R6u3nu17tzwOtLrUYLya-34" value="ReadContentCommand" style="swimlane;childLayout=stackLayout;horizontal=1;startSize=50;horizontalStack=0;rounded=1;fontSize=25;fontStyle=0;strokeWidth=2;resizeParent=0;resizeLast=1;shadow=0;dashed=0;align=center;arcSize=4;whiteSpace=wrap;html=1;" parent="1" vertex="1">
          <mxGeometry x="-52.5" y="1030" width="300" height="240" as="geometry" />
        </mxCell>
        <mxCell id="R6u3nu17tzwOtLrUYLya-35" value="&lt;div&gt;+ username&lt;/div&gt;&lt;div&gt;+ url&lt;/div&gt;&lt;div&gt;&lt;br&gt;&lt;/div&gt;&lt;div&gt;&lt;span style=&quot;color: rgb(128, 255, 0);&quot;&gt;+ text&lt;/span&gt;&lt;/div&gt;" style="align=left;strokeColor=none;fillColor=none;spacingLeft=4;spacingRight=4;fontSize=25;verticalAlign=top;resizable=0;rotatable=0;part=1;html=1;whiteSpace=wrap;" parent="R6u3nu17tzwOtLrUYLya-34" vertex="1">
          <mxGeometry y="50" width="300" height="190" as="geometry" />
        </mxCell>
        <mxCell id="R6u3nu17tzwOtLrUYLya-36" value="" style="endArrow=none;dashed=1;html=1;rounded=0;" parent="1" edge="1">
          <mxGeometry width="50" height="50" relative="1" as="geometry">
            <mxPoint x="-142.5" y="1315" as="sourcePoint" />
            <mxPoint x="-142.5" y="955" as="targetPoint" />
          </mxGeometry>
        </mxCell>
        <mxCell id="R6u3nu17tzwOtLrUYLya-37" value="&lt;font style=&quot;font-size: 40px;&quot;&gt;application&lt;/font&gt;" style="text;html=1;align=center;verticalAlign=middle;whiteSpace=wrap;rounded=0;rotation=270;" parent="1" vertex="1">
          <mxGeometry x="-352.5" y="1100" width="250" height="70" as="geometry" />
        </mxCell>
        <mxCell id="R6u3nu17tzwOtLrUYLya-38" value="" style="endArrow=none;dashed=1;html=1;rounded=0;" parent="1" edge="1">
          <mxGeometry width="50" height="50" relative="1" as="geometry">
            <mxPoint x="664" y="1315" as="sourcePoint" />
            <mxPoint x="664" y="955" as="targetPoint" />
          </mxGeometry>
        </mxCell>
        <mxCell id="R6u3nu17tzwOtLrUYLya-39" value="&lt;div&gt;&lt;font style=&quot;font-size: 40px;&quot;&gt;persistence&lt;/font&gt;&lt;/div&gt;" style="text;html=1;align=center;verticalAlign=middle;whiteSpace=wrap;rounded=0;rotation=270;" parent="1" vertex="1">
          <mxGeometry x="957.5" y="1102.5" width="270" height="35" as="geometry" />
        </mxCell>
        <mxCell id="R6u3nu17tzwOtLrUYLya-40" value="&lt;font style=&quot;font-size: 50px;&quot;&gt;Read Content Behavior&lt;/font&gt;" style="text;html=1;align=center;verticalAlign=middle;resizable=0;points=[];autosize=1;strokeColor=none;fillColor=none;" parent="1" vertex="1">
          <mxGeometry x="167.5" y="840" width="540" height="90" as="geometry" />
        </mxCell>
        <mxCell id="R6u3nu17tzwOtLrUYLya-41" value="domain layer" style="whiteSpace=wrap;html=1;aspect=fixed;fontSize=25;" parent="1" vertex="1">
          <mxGeometry x="277.5" y="1727.5" width="345" height="345" as="geometry" />
        </mxCell>
        <mxCell id="R6u3nu17tzwOtLrUYLya-42" value="Content" style="swimlane;childLayout=stackLayout;horizontal=1;startSize=50;horizontalStack=0;rounded=1;fontSize=25;fontStyle=0;strokeWidth=2;resizeParent=0;resizeLast=1;shadow=0;dashed=0;align=center;arcSize=4;whiteSpace=wrap;html=1;" parent="1" vertex="1">
          <mxGeometry x="701.5" y="1780" width="283.5" height="410" as="geometry" />
        </mxCell>
        <mxCell id="R6u3nu17tzwOtLrUYLya-43" value="&lt;div&gt;+ text&lt;/div&gt;&lt;div&gt;+ url&lt;/div&gt;&lt;div&gt;+ creationTime&lt;/div&gt;&lt;div&gt;&lt;span style=&quot;color: rgb(0, 255, 0);&quot;&gt;&lt;br&gt;&lt;/span&gt;&lt;/div&gt;&lt;div&gt;&lt;span style=&quot;color: rgb(0, 255, 0);&quot;&gt;+ id&lt;/span&gt;&lt;/div&gt;&lt;div&gt;&lt;span style=&quot;color: rgb(0, 255, 0);&quot;&gt;+ name&lt;/span&gt;&lt;/div&gt;&lt;div&gt;&lt;span style=&quot;color: rgb(0, 255, 0);&quot;&gt;+ username&lt;/span&gt;&lt;/div&gt;&lt;div&gt;&lt;span style=&quot;color: rgb(0, 255, 0);&quot;&gt;+ text&lt;/span&gt;&lt;/div&gt;&lt;div&gt;&lt;span style=&quot;color: rgb(0, 255, 0);&quot;&gt;+ url&lt;/span&gt;&lt;/div&gt;&lt;div&gt;&lt;span style=&quot;color: rgb(0, 255, 0);&quot;&gt;+ creationTime&lt;/span&gt;&lt;/div&gt;&lt;div&gt;&lt;span style=&quot;color: rgb(0, 255, 0);&quot;&gt;&lt;br&gt;&lt;/span&gt;&lt;/div&gt;" style="align=left;strokeColor=none;fillColor=none;spacingLeft=4;spacingRight=4;fontSize=25;verticalAlign=top;resizable=0;rotatable=0;part=1;html=1;whiteSpace=wrap;" parent="R6u3nu17tzwOtLrUYLya-42" vertex="1">
          <mxGeometry y="50" width="283.5" height="360" as="geometry" />
        </mxCell>
        <mxCell id="R6u3nu17tzwOtLrUYLya-44" value="UpdateContentCommand" style="swimlane;childLayout=stackLayout;horizontal=1;startSize=50;horizontalStack=0;rounded=1;fontSize=25;fontStyle=0;strokeWidth=2;resizeParent=0;resizeLast=1;shadow=0;dashed=0;align=center;arcSize=4;whiteSpace=wrap;html=1;" parent="1" vertex="1">
          <mxGeometry x="-60" y="1780" width="307.5" height="290" as="geometry" />
        </mxCell>
        <mxCell id="R6u3nu17tzwOtLrUYLya-45" value="&lt;div&gt;+ username&lt;/div&gt;&lt;div&gt;+ url&lt;/div&gt;&lt;div&gt;+ text&lt;/div&gt;&lt;div&gt;&lt;br&gt;&lt;/div&gt;&lt;div&gt;&lt;span style=&quot;color: rgb(128, 255, 0);&quot;&gt;+ url&lt;/span&gt;&lt;/div&gt;&lt;div&gt;&lt;span style=&quot;color: rgb(128, 255, 0);&quot;&gt;+ creationTime&lt;/span&gt;&lt;/div&gt;" style="align=left;strokeColor=none;fillColor=none;spacingLeft=4;spacingRight=4;fontSize=25;verticalAlign=top;resizable=0;rotatable=0;part=1;html=1;whiteSpace=wrap;" parent="R6u3nu17tzwOtLrUYLya-44" vertex="1">
          <mxGeometry y="50" width="307.5" height="240" as="geometry" />
        </mxCell>
        <mxCell id="R6u3nu17tzwOtLrUYLya-46" value="" style="endArrow=none;dashed=1;html=1;rounded=0;" parent="1" edge="1">
          <mxGeometry width="50" height="50" relative="1" as="geometry">
            <mxPoint x="-142.5" y="2065" as="sourcePoint" />
            <mxPoint x="-142.5" y="1705" as="targetPoint" />
          </mxGeometry>
        </mxCell>
        <mxCell id="R6u3nu17tzwOtLrUYLya-47" value="&lt;font style=&quot;font-size: 40px;&quot;&gt;application&lt;/font&gt;" style="text;html=1;align=center;verticalAlign=middle;whiteSpace=wrap;rounded=0;rotation=270;" parent="1" vertex="1">
          <mxGeometry x="-352.5" y="1850" width="250" height="70" as="geometry" />
        </mxCell>
        <mxCell id="R6u3nu17tzwOtLrUYLya-48" value="" style="endArrow=none;dashed=1;html=1;rounded=0;" parent="1" edge="1">
          <mxGeometry width="50" height="50" relative="1" as="geometry">
            <mxPoint x="664" y="2070" as="sourcePoint" />
            <mxPoint x="664" y="1710" as="targetPoint" />
          </mxGeometry>
        </mxCell>
        <mxCell id="R6u3nu17tzwOtLrUYLya-49" value="&lt;div&gt;&lt;font style=&quot;font-size: 40px;&quot;&gt;persistence&lt;/font&gt;&lt;/div&gt;" style="text;html=1;align=center;verticalAlign=middle;whiteSpace=wrap;rounded=0;rotation=270;" parent="1" vertex="1">
          <mxGeometry x="957.5" y="1852.5" width="270" height="35" as="geometry" />
        </mxCell>
        <mxCell id="R6u3nu17tzwOtLrUYLya-50" value="&lt;font style=&quot;font-size: 50px;&quot;&gt;Update Content Behavior&lt;/font&gt;" style="text;html=1;align=center;verticalAlign=middle;resizable=0;points=[];autosize=1;strokeColor=none;fillColor=none;" parent="1" vertex="1">
          <mxGeometry x="152.5" y="1590" width="570" height="90" as="geometry" />
        </mxCell>
        <mxCell id="R6u3nu17tzwOtLrUYLya-72" value="domain layer" style="whiteSpace=wrap;html=1;aspect=fixed;fontSize=25;" parent="1" vertex="1">
          <mxGeometry x="265" y="2537.5" width="345" height="345" as="geometry" />
        </mxCell>
        <mxCell id="R6u3nu17tzwOtLrUYLya-73" value="Content" style="swimlane;childLayout=stackLayout;horizontal=1;startSize=50;horizontalStack=0;rounded=1;fontSize=25;fontStyle=0;strokeWidth=2;resizeParent=0;resizeLast=1;shadow=0;dashed=0;align=center;arcSize=4;whiteSpace=wrap;html=1;" parent="1" vertex="1">
          <mxGeometry x="701.5" y="2590" width="275" height="350" as="geometry" />
        </mxCell>
        <mxCell id="R6u3nu17tzwOtLrUYLya-74" value="&lt;div&gt;+ url&lt;/div&gt;&lt;div&gt;&lt;span style=&quot;color: rgb(0, 255, 0);&quot;&gt;&lt;br&gt;&lt;/span&gt;&lt;/div&gt;&lt;div&gt;&lt;span style=&quot;color: rgb(0, 255, 0);&quot;&gt;+ id&lt;/span&gt;&lt;/div&gt;&lt;div&gt;&lt;div&gt;&lt;span style=&quot;color: rgb(0, 255, 0);&quot;&gt;+ name&lt;/span&gt;&lt;/div&gt;&lt;div&gt;&lt;span style=&quot;color: rgb(0, 255, 0);&quot;&gt;+ username&lt;/span&gt;&lt;/div&gt;&lt;div&gt;&lt;span style=&quot;color: rgb(0, 255, 0);&quot;&gt;+ text&lt;/span&gt;&lt;/div&gt;&lt;div&gt;&lt;span style=&quot;color: rgb(0, 255, 0);&quot;&gt;+ url&lt;/span&gt;&lt;/div&gt;&lt;div&gt;&lt;span style=&quot;color: rgb(0, 255, 0);&quot;&gt;+ creationTime&lt;/span&gt;&lt;/div&gt;&lt;br&gt;&lt;/div&gt;" style="align=left;strokeColor=none;fillColor=none;spacingLeft=4;spacingRight=4;fontSize=25;verticalAlign=top;resizable=0;rotatable=0;part=1;html=1;whiteSpace=wrap;" parent="R6u3nu17tzwOtLrUYLya-73" vertex="1">
          <mxGeometry y="50" width="275" height="300" as="geometry" />
        </mxCell>
        <mxCell id="R6u3nu17tzwOtLrUYLya-75" value="DeleteContentCommand" style="swimlane;childLayout=stackLayout;horizontal=1;startSize=50;horizontalStack=0;rounded=1;fontSize=25;fontStyle=0;strokeWidth=2;resizeParent=0;resizeLast=1;shadow=0;dashed=0;align=center;arcSize=4;whiteSpace=wrap;html=1;" parent="1" vertex="1">
          <mxGeometry x="-65" y="2590" width="300" height="240" as="geometry" />
        </mxCell>
        <mxCell id="R6u3nu17tzwOtLrUYLya-76" value="&lt;div&gt;+username&lt;/div&gt;&lt;div&gt;+ url&lt;/div&gt;&lt;div&gt;&lt;br&gt;&lt;/div&gt;&lt;div&gt;&lt;span style=&quot;color: rgb(128, 255, 0);&quot;&gt;+ deletionTime&lt;/span&gt;&lt;/div&gt;" style="align=left;strokeColor=none;fillColor=none;spacingLeft=4;spacingRight=4;fontSize=25;verticalAlign=top;resizable=0;rotatable=0;part=1;html=1;whiteSpace=wrap;" parent="R6u3nu17tzwOtLrUYLya-75" vertex="1">
          <mxGeometry y="50" width="300" height="190" as="geometry" />
        </mxCell>
        <mxCell id="R6u3nu17tzwOtLrUYLya-77" value="" style="endArrow=none;dashed=1;html=1;rounded=0;" parent="1" edge="1">
          <mxGeometry width="50" height="50" relative="1" as="geometry">
            <mxPoint x="-155" y="2875" as="sourcePoint" />
            <mxPoint x="-155" y="2515" as="targetPoint" />
          </mxGeometry>
        </mxCell>
        <mxCell id="R6u3nu17tzwOtLrUYLya-78" value="&lt;font style=&quot;font-size: 40px;&quot;&gt;application&lt;/font&gt;" style="text;html=1;align=center;verticalAlign=middle;whiteSpace=wrap;rounded=0;rotation=270;" parent="1" vertex="1">
          <mxGeometry x="-365" y="2660" width="250" height="70" as="geometry" />
        </mxCell>
        <mxCell id="R6u3nu17tzwOtLrUYLya-79" value="" style="endArrow=none;dashed=1;html=1;rounded=0;" parent="1" edge="1">
          <mxGeometry width="50" height="50" relative="1" as="geometry">
            <mxPoint x="660" y="2875" as="sourcePoint" />
            <mxPoint x="660" y="2515" as="targetPoint" />
          </mxGeometry>
        </mxCell>
        <mxCell id="R6u3nu17tzwOtLrUYLya-80" value="&lt;div&gt;&lt;font style=&quot;font-size: 40px;&quot;&gt;persistence&lt;/font&gt;&lt;/div&gt;" style="text;html=1;align=center;verticalAlign=middle;whiteSpace=wrap;rounded=0;rotation=270;" parent="1" vertex="1">
          <mxGeometry x="945" y="2662.5" width="270" height="35" as="geometry" />
        </mxCell>
        <mxCell id="R6u3nu17tzwOtLrUYLya-81" value="&lt;font style=&quot;font-size: 50px;&quot;&gt;Delete Content Behavior&lt;/font&gt;" style="text;html=1;align=center;verticalAlign=middle;resizable=0;points=[];autosize=1;strokeColor=none;fillColor=none;" parent="1" vertex="1">
          <mxGeometry x="140" y="2400" width="570" height="90" as="geometry" />
        </mxCell>
      </root>
    </mxGraphModel>
  </diagram>
</mxfile>
